<mxfile host="Electron" modified="2023-10-20T03:25:58.587Z" agent="Mozilla/5.0 (Windows NT 10.0; Win64; x64) AppleWebKit/537.36 (KHTML, like Gecko) draw.io/22.0.3 Chrome/114.0.5735.289 Electron/25.8.4 Safari/537.36" etag="9--h3u0fM1ymaKt44K5a" version="22.0.3" type="device">
  <diagram name="Page-1" id="sYtx6z7rF7cJxOc9Lzwu">
    <mxGraphModel dx="1728" dy="1003" grid="1" gridSize="10" guides="1" tooltips="1" connect="1" arrows="1" fold="1" page="1" pageScale="1" pageWidth="850" pageHeight="1100" math="0" shadow="0">
      <root>
        <mxCell id="0" />
        <mxCell id="1" parent="0" />
        <mxCell id="apBYiKPrkvCSFLuw5tlf-1" value="Department" style="swimlane;fontStyle=0;childLayout=stackLayout;horizontal=1;startSize=26;horizontalStack=0;resizeParent=1;resizeParentMax=0;resizeLast=0;collapsible=1;marginBottom=0;align=center;fontSize=14;" parent="1" vertex="1">
          <mxGeometry x="440" y="120" width="160" height="86" as="geometry" />
        </mxCell>
        <mxCell id="apBYiKPrkvCSFLuw5tlf-2" value="&lt;u&gt;Department_ID&lt;/u&gt;" style="text;strokeColor=none;fillColor=none;spacingLeft=4;spacingRight=4;overflow=hidden;rotatable=0;points=[[0,0.5],[1,0.5]];portConstraint=eastwest;fontSize=12;whiteSpace=wrap;html=1;" parent="apBYiKPrkvCSFLuw5tlf-1" vertex="1">
          <mxGeometry y="26" width="160" height="30" as="geometry" />
        </mxCell>
        <mxCell id="apBYiKPrkvCSFLuw5tlf-3" value="Department_name" style="text;strokeColor=none;fillColor=none;spacingLeft=4;spacingRight=4;overflow=hidden;rotatable=0;points=[[0,0.5],[1,0.5]];portConstraint=eastwest;fontSize=12;whiteSpace=wrap;html=1;" parent="apBYiKPrkvCSFLuw5tlf-1" vertex="1">
          <mxGeometry y="56" width="160" height="30" as="geometry" />
        </mxCell>
        <mxCell id="I4SNP1lVgfRBvUvI3X4L-1" style="edgeStyle=orthogonalEdgeStyle;rounded=0;orthogonalLoop=1;jettySize=auto;html=1;entryX=-0.005;entryY=0.151;entryDx=0;entryDy=0;endArrow=ERmandOne;endFill=0;entryPerimeter=0;startArrow=ERoneToMany;startFill=0;" edge="1" parent="1" source="apBYiKPrkvCSFLuw5tlf-5" target="apBYiKPrkvCSFLuw5tlf-3">
          <mxGeometry relative="1" as="geometry">
            <mxPoint x="420" y="190" as="targetPoint" />
          </mxGeometry>
        </mxCell>
        <mxCell id="apBYiKPrkvCSFLuw5tlf-5" value="Employee" style="swimlane;fontStyle=0;childLayout=stackLayout;horizontal=1;startSize=26;horizontalStack=0;resizeParent=1;resizeParentMax=0;resizeLast=0;collapsible=1;marginBottom=0;align=center;fontSize=14;" parent="1" vertex="1">
          <mxGeometry x="190" y="100" width="160" height="180" as="geometry" />
        </mxCell>
        <mxCell id="apBYiKPrkvCSFLuw5tlf-6" value="&lt;u&gt;Employee_ID&lt;/u&gt;" style="text;strokeColor=none;fillColor=none;spacingLeft=4;spacingRight=4;overflow=hidden;rotatable=0;points=[[0,0.5],[1,0.5]];portConstraint=eastwest;fontSize=12;whiteSpace=wrap;html=1;" parent="apBYiKPrkvCSFLuw5tlf-5" vertex="1">
          <mxGeometry y="26" width="160" height="30" as="geometry" />
        </mxCell>
        <mxCell id="apBYiKPrkvCSFLuw5tlf-7" value="Name" style="text;strokeColor=none;fillColor=none;spacingLeft=4;spacingRight=4;overflow=hidden;rotatable=0;points=[[0,0.5],[1,0.5]];portConstraint=eastwest;fontSize=12;whiteSpace=wrap;html=1;" parent="apBYiKPrkvCSFLuw5tlf-5" vertex="1">
          <mxGeometry y="56" width="160" height="30" as="geometry" />
        </mxCell>
        <mxCell id="apBYiKPrkvCSFLuw5tlf-8" value="Adddress" style="text;strokeColor=none;fillColor=none;spacingLeft=4;spacingRight=4;overflow=hidden;rotatable=0;points=[[0,0.5],[1,0.5]];portConstraint=eastwest;fontSize=12;whiteSpace=wrap;html=1;" parent="apBYiKPrkvCSFLuw5tlf-5" vertex="1">
          <mxGeometry y="86" width="160" height="34" as="geometry" />
        </mxCell>
        <mxCell id="apBYiKPrkvCSFLuw5tlf-9" value="City/State/Zip" style="text;strokeColor=none;fillColor=none;spacingLeft=4;spacingRight=4;overflow=hidden;rotatable=0;points=[[0,0.5],[1,0.5]];portConstraint=eastwest;fontSize=12;whiteSpace=wrap;html=1;" parent="apBYiKPrkvCSFLuw5tlf-5" vertex="1">
          <mxGeometry y="120" width="160" height="30" as="geometry" />
        </mxCell>
        <mxCell id="apBYiKPrkvCSFLuw5tlf-10" value="Phone" style="text;strokeColor=none;fillColor=none;spacingLeft=4;spacingRight=4;overflow=hidden;rotatable=0;points=[[0,0.5],[1,0.5]];portConstraint=eastwest;fontSize=12;whiteSpace=wrap;html=1;" parent="apBYiKPrkvCSFLuw5tlf-5" vertex="1">
          <mxGeometry y="150" width="160" height="30" as="geometry" />
        </mxCell>
        <mxCell id="S1Vte30AC0sNa9_ae5hA-1" value="Incident" style="swimlane;fontStyle=0;childLayout=stackLayout;horizontal=1;startSize=26;horizontalStack=0;resizeParent=1;resizeParentMax=0;resizeLast=0;collapsible=1;marginBottom=0;align=center;fontSize=14;" parent="1" vertex="1">
          <mxGeometry x="640" y="240" width="160" height="330" as="geometry" />
        </mxCell>
        <mxCell id="S1Vte30AC0sNa9_ae5hA-2" value="&lt;u&gt;Incident_Report_ID&lt;/u&gt;" style="text;strokeColor=none;fillColor=none;spacingLeft=4;spacingRight=4;overflow=hidden;rotatable=0;points=[[0,0.5],[1,0.5]];portConstraint=eastwest;fontSize=12;whiteSpace=wrap;html=1;" parent="S1Vte30AC0sNa9_ae5hA-1" vertex="1">
          <mxGeometry y="26" width="160" height="30" as="geometry" />
        </mxCell>
        <mxCell id="S1Vte30AC0sNa9_ae5hA-3" value="Employee_Involved" style="text;strokeColor=none;fillColor=none;spacingLeft=4;spacingRight=4;overflow=hidden;rotatable=0;points=[[0,0.5],[1,0.5]];portConstraint=eastwest;fontSize=12;whiteSpace=wrap;html=1;" parent="S1Vte30AC0sNa9_ae5hA-1" vertex="1">
          <mxGeometry y="56" width="160" height="30" as="geometry" />
        </mxCell>
        <mxCell id="S1Vte30AC0sNa9_ae5hA-4" value="Type" style="text;strokeColor=none;fillColor=none;spacingLeft=4;spacingRight=4;overflow=hidden;rotatable=0;points=[[0,0.5],[1,0.5]];portConstraint=eastwest;fontSize=12;whiteSpace=wrap;html=1;" parent="S1Vte30AC0sNa9_ae5hA-1" vertex="1">
          <mxGeometry y="86" width="160" height="34" as="geometry" />
        </mxCell>
        <mxCell id="S1Vte30AC0sNa9_ae5hA-5" value="Occurence_Date" style="text;strokeColor=none;fillColor=none;spacingLeft=4;spacingRight=4;overflow=hidden;rotatable=0;points=[[0,0.5],[1,0.5]];portConstraint=eastwest;fontSize=12;whiteSpace=wrap;html=1;" parent="S1Vte30AC0sNa9_ae5hA-1" vertex="1">
          <mxGeometry y="120" width="160" height="30" as="geometry" />
        </mxCell>
        <mxCell id="S1Vte30AC0sNa9_ae5hA-6" value="Description" style="text;strokeColor=none;fillColor=none;spacingLeft=4;spacingRight=4;overflow=hidden;rotatable=0;points=[[0,0.5],[1,0.5]];portConstraint=eastwest;fontSize=12;whiteSpace=wrap;html=1;" parent="S1Vte30AC0sNa9_ae5hA-1" vertex="1">
          <mxGeometry y="150" width="160" height="30" as="geometry" />
        </mxCell>
        <mxCell id="S1Vte30AC0sNa9_ae5hA-44" value="Severity" style="text;strokeColor=none;fillColor=none;spacingLeft=4;spacingRight=4;overflow=hidden;rotatable=0;points=[[0,0.5],[1,0.5]];portConstraint=eastwest;fontSize=12;whiteSpace=wrap;html=1;" parent="S1Vte30AC0sNa9_ae5hA-1" vertex="1">
          <mxGeometry y="180" width="160" height="30" as="geometry" />
        </mxCell>
        <mxCell id="S1Vte30AC0sNa9_ae5hA-45" value="Supervisor_On_Duty" style="text;strokeColor=none;fillColor=none;spacingLeft=4;spacingRight=4;overflow=hidden;rotatable=0;points=[[0,0.5],[1,0.5]];portConstraint=eastwest;fontSize=12;whiteSpace=wrap;html=1;" parent="S1Vte30AC0sNa9_ae5hA-1" vertex="1">
          <mxGeometry y="210" width="160" height="30" as="geometry" />
        </mxCell>
        <mxCell id="S1Vte30AC0sNa9_ae5hA-46" value="Root_Cause" style="text;strokeColor=none;fillColor=none;spacingLeft=4;spacingRight=4;overflow=hidden;rotatable=0;points=[[0,0.5],[1,0.5]];portConstraint=eastwest;fontSize=12;whiteSpace=wrap;html=1;" parent="S1Vte30AC0sNa9_ae5hA-1" vertex="1">
          <mxGeometry y="240" width="160" height="30" as="geometry" />
        </mxCell>
        <mxCell id="S1Vte30AC0sNa9_ae5hA-47" value="Impact" style="text;strokeColor=none;fillColor=none;spacingLeft=4;spacingRight=4;overflow=hidden;rotatable=0;points=[[0,0.5],[1,0.5]];portConstraint=eastwest;fontSize=12;whiteSpace=wrap;html=1;" parent="S1Vte30AC0sNa9_ae5hA-1" vertex="1">
          <mxGeometry y="270" width="160" height="30" as="geometry" />
        </mxCell>
        <mxCell id="S1Vte30AC0sNa9_ae5hA-48" value="Equipment_Involved_ID" style="text;strokeColor=none;fillColor=none;spacingLeft=4;spacingRight=4;overflow=hidden;rotatable=0;points=[[0,0.5],[1,0.5]];portConstraint=eastwest;fontSize=12;whiteSpace=wrap;html=1;" parent="S1Vte30AC0sNa9_ae5hA-1" vertex="1">
          <mxGeometry y="300" width="160" height="30" as="geometry" />
        </mxCell>
        <mxCell id="S1Vte30AC0sNa9_ae5hA-7" value="Safety Inspection" style="swimlane;fontStyle=0;childLayout=stackLayout;horizontal=1;startSize=26;horizontalStack=0;resizeParent=1;resizeParentMax=0;resizeLast=0;collapsible=1;marginBottom=0;align=center;fontSize=14;" parent="1" vertex="1">
          <mxGeometry x="80" y="760" width="160" height="120" as="geometry" />
        </mxCell>
        <mxCell id="S1Vte30AC0sNa9_ae5hA-8" value="&lt;u&gt;Inspection_ID&lt;/u&gt;" style="text;strokeColor=none;fillColor=none;spacingLeft=4;spacingRight=4;overflow=hidden;rotatable=0;points=[[0,0.5],[1,0.5]];portConstraint=eastwest;fontSize=12;whiteSpace=wrap;html=1;" parent="S1Vte30AC0sNa9_ae5hA-7" vertex="1">
          <mxGeometry y="26" width="160" height="30" as="geometry" />
        </mxCell>
        <mxCell id="S1Vte30AC0sNa9_ae5hA-9" value="Inspector_ID" style="text;strokeColor=none;fillColor=none;spacingLeft=4;spacingRight=4;overflow=hidden;rotatable=0;points=[[0,0.5],[1,0.5]];portConstraint=eastwest;fontSize=12;whiteSpace=wrap;html=1;" parent="S1Vte30AC0sNa9_ae5hA-7" vertex="1">
          <mxGeometry y="56" width="160" height="30" as="geometry" />
        </mxCell>
        <mxCell id="S1Vte30AC0sNa9_ae5hA-10" value="Inspection_Date" style="text;strokeColor=none;fillColor=none;spacingLeft=4;spacingRight=4;overflow=hidden;rotatable=0;points=[[0,0.5],[1,0.5]];portConstraint=eastwest;fontSize=12;whiteSpace=wrap;html=1;" parent="S1Vte30AC0sNa9_ae5hA-7" vertex="1">
          <mxGeometry y="86" width="160" height="34" as="geometry" />
        </mxCell>
        <mxCell id="S1Vte30AC0sNa9_ae5hA-13" value="Employee Training" style="swimlane;fontStyle=0;childLayout=stackLayout;horizontal=1;startSize=26;horizontalStack=0;resizeParent=1;resizeParentMax=0;resizeLast=0;collapsible=1;marginBottom=0;align=center;fontSize=14;" parent="1" vertex="1">
          <mxGeometry x="320" y="530" width="160" height="210" as="geometry" />
        </mxCell>
        <mxCell id="S1Vte30AC0sNa9_ae5hA-14" value="&lt;u&gt;Training_ID&lt;/u&gt;" style="text;strokeColor=none;fillColor=none;spacingLeft=4;spacingRight=4;overflow=hidden;rotatable=0;points=[[0,0.5],[1,0.5]];portConstraint=eastwest;fontSize=12;whiteSpace=wrap;html=1;" parent="S1Vte30AC0sNa9_ae5hA-13" vertex="1">
          <mxGeometry y="26" width="160" height="30" as="geometry" />
        </mxCell>
        <mxCell id="S1Vte30AC0sNa9_ae5hA-15" value="Supervisor_ID" style="text;strokeColor=none;fillColor=none;spacingLeft=4;spacingRight=4;overflow=hidden;rotatable=0;points=[[0,0.5],[1,0.5]];portConstraint=eastwest;fontSize=12;whiteSpace=wrap;html=1;" parent="S1Vte30AC0sNa9_ae5hA-13" vertex="1">
          <mxGeometry y="56" width="160" height="30" as="geometry" />
        </mxCell>
        <mxCell id="S1Vte30AC0sNa9_ae5hA-16" value="Employee_ID" style="text;strokeColor=none;fillColor=none;spacingLeft=4;spacingRight=4;overflow=hidden;rotatable=0;points=[[0,0.5],[1,0.5]];portConstraint=eastwest;fontSize=12;whiteSpace=wrap;html=1;" parent="S1Vte30AC0sNa9_ae5hA-13" vertex="1">
          <mxGeometry y="86" width="160" height="34" as="geometry" />
        </mxCell>
        <mxCell id="S1Vte30AC0sNa9_ae5hA-18" value="Training_Name&lt;span id=&quot;docs-internal-guid-70e53d38-7fff-9f98-15dd-3e7fa3ef2a90&quot;&gt;&lt;/span&gt;" style="text;strokeColor=none;fillColor=none;spacingLeft=4;spacingRight=4;overflow=hidden;rotatable=0;points=[[0,0.5],[1,0.5]];portConstraint=eastwest;fontSize=12;whiteSpace=wrap;html=1;" parent="S1Vte30AC0sNa9_ae5hA-13" vertex="1">
          <mxGeometry y="120" width="160" height="30" as="geometry" />
        </mxCell>
        <mxCell id="S1Vte30AC0sNa9_ae5hA-17" value="Completion_Timestamp&lt;span id=&quot;docs-internal-guid-70e53d38-7fff-9f98-15dd-3e7fa3ef2a90&quot;&gt;&lt;/span&gt;&lt;span id=&quot;docs-internal-guid-1840ea6c-7fff-8239-9647-e2429dcb6cf9&quot;&gt;&lt;/span&gt;&lt;span id=&quot;docs-internal-guid-1840ea6c-7fff-8239-9647-e2429dcb6cf9&quot;&gt;&lt;/span&gt;" style="text;strokeColor=none;fillColor=none;spacingLeft=4;spacingRight=4;overflow=hidden;rotatable=0;points=[[0,0.5],[1,0.5]];portConstraint=eastwest;fontSize=12;whiteSpace=wrap;html=1;" parent="S1Vte30AC0sNa9_ae5hA-13" vertex="1">
          <mxGeometry y="150" width="160" height="30" as="geometry" />
        </mxCell>
        <mxCell id="S1Vte30AC0sNa9_ae5hA-49" value="Exparation_Timestamp&lt;span id=&quot;docs-internal-guid-70e53d38-7fff-9f98-15dd-3e7fa3ef2a90&quot;&gt;&lt;/span&gt;&lt;span id=&quot;docs-internal-guid-1840ea6c-7fff-8239-9647-e2429dcb6cf9&quot;&gt;&lt;/span&gt;&lt;span id=&quot;docs-internal-guid-1840ea6c-7fff-8239-9647-e2429dcb6cf9&quot;&gt;&lt;/span&gt;" style="text;strokeColor=none;fillColor=none;spacingLeft=4;spacingRight=4;overflow=hidden;rotatable=0;points=[[0,0.5],[1,0.5]];portConstraint=eastwest;fontSize=12;whiteSpace=wrap;html=1;" parent="S1Vte30AC0sNa9_ae5hA-13" vertex="1">
          <mxGeometry y="180" width="160" height="30" as="geometry" />
        </mxCell>
        <mxCell id="S1Vte30AC0sNa9_ae5hA-19" value="Equipment" style="swimlane;fontStyle=0;childLayout=stackLayout;horizontal=1;startSize=26;horizontalStack=0;resizeParent=1;resizeParentMax=0;resizeLast=0;collapsible=1;marginBottom=0;align=center;fontSize=14;" parent="1" vertex="1">
          <mxGeometry x="560" y="760" width="160" height="120" as="geometry" />
        </mxCell>
        <mxCell id="S1Vte30AC0sNa9_ae5hA-20" value="&lt;u&gt;Equipment_ID&lt;/u&gt;" style="text;strokeColor=none;fillColor=none;spacingLeft=4;spacingRight=4;overflow=hidden;rotatable=0;points=[[0,0.5],[1,0.5]];portConstraint=eastwest;fontSize=12;whiteSpace=wrap;html=1;" parent="S1Vte30AC0sNa9_ae5hA-19" vertex="1">
          <mxGeometry y="26" width="160" height="30" as="geometry" />
        </mxCell>
        <mxCell id="S1Vte30AC0sNa9_ae5hA-21" value="Equipment_Name" style="text;strokeColor=none;fillColor=none;spacingLeft=4;spacingRight=4;overflow=hidden;rotatable=0;points=[[0,0.5],[1,0.5]];portConstraint=eastwest;fontSize=12;whiteSpace=wrap;html=1;" parent="S1Vte30AC0sNa9_ae5hA-19" vertex="1">
          <mxGeometry y="56" width="160" height="30" as="geometry" />
        </mxCell>
        <mxCell id="S1Vte30AC0sNa9_ae5hA-22" value="Last_Inspected_Date" style="text;strokeColor=none;fillColor=none;spacingLeft=4;spacingRight=4;overflow=hidden;rotatable=0;points=[[0,0.5],[1,0.5]];portConstraint=eastwest;fontSize=12;whiteSpace=wrap;html=1;" parent="S1Vte30AC0sNa9_ae5hA-19" vertex="1">
          <mxGeometry y="86" width="160" height="34" as="geometry" />
        </mxCell>
        <mxCell id="S1Vte30AC0sNa9_ae5hA-26" value="An employee can have zero or many accidents and accidents can have zero or many employees. An explosion can happen where there was no employees.&amp;nbsp;" style="rounded=0;whiteSpace=wrap;html=1;align=left;" parent="1" vertex="1">
          <mxGeometry x="60" y="940" width="700" height="30" as="geometry" />
        </mxCell>
        <mxCell id="S1Vte30AC0sNa9_ae5hA-28" value="Supervisor" style="swimlane;fontStyle=0;childLayout=stackLayout;horizontal=1;startSize=26;horizontalStack=0;resizeParent=1;resizeParentMax=0;resizeLast=0;collapsible=1;marginBottom=0;align=center;fontSize=14;" parent="1" vertex="1">
          <mxGeometry x="10" y="460" width="130" height="52" as="geometry" />
        </mxCell>
        <mxCell id="S1Vte30AC0sNa9_ae5hA-29" value="&lt;u&gt;Training_Certificate&lt;/u&gt;" style="text;strokeColor=none;fillColor=none;spacingLeft=4;spacingRight=4;overflow=hidden;rotatable=0;points=[[0,0.5],[1,0.5]];portConstraint=eastwest;fontSize=12;whiteSpace=wrap;html=1;" parent="S1Vte30AC0sNa9_ae5hA-28" vertex="1">
          <mxGeometry y="26" width="130" height="26" as="geometry" />
        </mxCell>
        <mxCell id="S1Vte30AC0sNa9_ae5hA-31" value="Forklift Operators" style="swimlane;fontStyle=0;childLayout=stackLayout;horizontal=1;startSize=26;horizontalStack=0;resizeParent=1;resizeParentMax=0;resizeLast=0;collapsible=1;marginBottom=0;align=center;fontSize=14;" parent="1" vertex="1">
          <mxGeometry x="120" y="430" width="110" height="20" as="geometry" />
        </mxCell>
        <mxCell id="S1Vte30AC0sNa9_ae5hA-33" value="Equipment Inspectors" style="swimlane;fontStyle=0;childLayout=stackLayout;horizontal=1;startSize=26;horizontalStack=0;resizeParent=1;resizeParentMax=0;resizeLast=0;collapsible=1;marginBottom=0;align=center;fontSize=14;" parent="1" vertex="1">
          <mxGeometry x="240" y="430" width="150" height="26" as="geometry" />
        </mxCell>
        <mxCell id="S1Vte30AC0sNa9_ae5hA-35" value="Inventory Clerks" style="swimlane;fontStyle=0;childLayout=stackLayout;horizontal=1;startSize=26;horizontalStack=0;resizeParent=1;resizeParentMax=0;resizeLast=0;collapsible=1;marginBottom=0;align=center;fontSize=14;" parent="1" vertex="1">
          <mxGeometry x="400" y="430" width="120" height="20" as="geometry" />
        </mxCell>
        <mxCell id="S1Vte30AC0sNa9_ae5hA-41" style="edgeStyle=orthogonalEdgeStyle;rounded=0;orthogonalLoop=1;jettySize=auto;html=1;endArrow=none;endFill=0;" parent="1" source="S1Vte30AC0sNa9_ae5hA-37" target="S1Vte30AC0sNa9_ae5hA-31" edge="1">
          <mxGeometry relative="1" as="geometry" />
        </mxCell>
        <mxCell id="S1Vte30AC0sNa9_ae5hA-37" value="D" style="ellipse;whiteSpace=wrap;html=1;" parent="1" vertex="1">
          <mxGeometry x="210" y="310" width="120" height="80" as="geometry" />
        </mxCell>
        <mxCell id="S1Vte30AC0sNa9_ae5hA-38" style="edgeStyle=orthogonalEdgeStyle;rounded=0;orthogonalLoop=1;jettySize=auto;html=1;entryX=0.5;entryY=0;entryDx=0;entryDy=0;endArrow=none;endFill=0;" parent="1" edge="1">
          <mxGeometry relative="1" as="geometry">
            <mxPoint x="280.00000000000006" y="280" as="sourcePoint" />
            <mxPoint x="280" y="309.99999999999994" as="targetPoint" />
          </mxGeometry>
        </mxCell>
        <mxCell id="S1Vte30AC0sNa9_ae5hA-39" style="edgeStyle=orthogonalEdgeStyle;rounded=0;orthogonalLoop=1;jettySize=auto;html=1;entryX=0.5;entryY=0;entryDx=0;entryDy=0;endArrow=none;endFill=0;" parent="1" edge="1">
          <mxGeometry relative="1" as="geometry">
            <mxPoint x="260.00000000000006" y="280" as="sourcePoint" />
            <mxPoint x="260" y="309.99999999999994" as="targetPoint" />
          </mxGeometry>
        </mxCell>
        <mxCell id="S1Vte30AC0sNa9_ae5hA-40" style="edgeStyle=orthogonalEdgeStyle;rounded=0;orthogonalLoop=1;jettySize=auto;html=1;entryX=0.599;entryY=0.007;entryDx=0;entryDy=0;entryPerimeter=0;endArrow=none;endFill=0;" parent="1" source="S1Vte30AC0sNa9_ae5hA-37" target="S1Vte30AC0sNa9_ae5hA-28" edge="1">
          <mxGeometry relative="1" as="geometry" />
        </mxCell>
        <mxCell id="S1Vte30AC0sNa9_ae5hA-42" style="edgeStyle=orthogonalEdgeStyle;rounded=0;orthogonalLoop=1;jettySize=auto;html=1;entryX=0.388;entryY=-0.001;entryDx=0;entryDy=0;entryPerimeter=0;endArrow=none;endFill=0;" parent="1" source="S1Vte30AC0sNa9_ae5hA-37" target="S1Vte30AC0sNa9_ae5hA-33" edge="1">
          <mxGeometry relative="1" as="geometry" />
        </mxCell>
        <mxCell id="S1Vte30AC0sNa9_ae5hA-43" style="edgeStyle=orthogonalEdgeStyle;rounded=0;orthogonalLoop=1;jettySize=auto;html=1;entryX=0.139;entryY=-0.04;entryDx=0;entryDy=0;entryPerimeter=0;endArrow=none;endFill=0;" parent="1" source="S1Vte30AC0sNa9_ae5hA-37" target="S1Vte30AC0sNa9_ae5hA-35" edge="1">
          <mxGeometry relative="1" as="geometry" />
        </mxCell>
        <mxCell id="S1Vte30AC0sNa9_ae5hA-50" value="Hector Napier" style="rounded=0;whiteSpace=wrap;html=1;" parent="1" vertex="1">
          <mxGeometry x="280" y="20" width="280" height="60" as="geometry" />
        </mxCell>
        <mxCell id="I4SNP1lVgfRBvUvI3X4L-3" style="edgeStyle=orthogonalEdgeStyle;rounded=0;orthogonalLoop=1;jettySize=auto;html=1;entryX=-0.01;entryY=0.088;entryDx=0;entryDy=0;entryPerimeter=0;endArrow=ERzeroToMany;endFill=0;startArrow=ERzeroToMany;startFill=0;" edge="1" parent="1" source="apBYiKPrkvCSFLuw5tlf-9" target="S1Vte30AC0sNa9_ae5hA-4">
          <mxGeometry relative="1" as="geometry" />
        </mxCell>
        <mxCell id="I4SNP1lVgfRBvUvI3X4L-5" style="edgeStyle=orthogonalEdgeStyle;rounded=0;orthogonalLoop=1;jettySize=auto;html=1;entryX=1;entryY=0.5;entryDx=0;entryDy=0;endArrow=ERzeroToOne;endFill=0;startArrow=ERzeroToMany;startFill=0;" edge="1" parent="1" source="S1Vte30AC0sNa9_ae5hA-46" target="S1Vte30AC0sNa9_ae5hA-29">
          <mxGeometry relative="1" as="geometry" />
        </mxCell>
        <mxCell id="I4SNP1lVgfRBvUvI3X4L-7" style="edgeStyle=orthogonalEdgeStyle;rounded=0;orthogonalLoop=1;jettySize=auto;html=1;endArrow=ERone;endFill=0;startArrow=ERmany;startFill=0;" edge="1" parent="1" source="S1Vte30AC0sNa9_ae5hA-7">
          <mxGeometry relative="1" as="geometry">
            <mxPoint x="240" y="800" as="targetPoint" />
            <Array as="points">
              <mxPoint x="160" y="720" />
              <mxPoint x="260" y="720" />
              <mxPoint x="260" y="800" />
              <mxPoint x="240" y="800" />
            </Array>
          </mxGeometry>
        </mxCell>
        <mxCell id="I4SNP1lVgfRBvUvI3X4L-9" value="Inspector" style="edgeLabel;html=1;align=center;verticalAlign=middle;resizable=0;points=[];" vertex="1" connectable="0" parent="I4SNP1lVgfRBvUvI3X4L-7">
          <mxGeometry x="-0.2564" relative="1" as="geometry">
            <mxPoint x="8" as="offset" />
          </mxGeometry>
        </mxCell>
        <mxCell id="I4SNP1lVgfRBvUvI3X4L-10" style="edgeStyle=orthogonalEdgeStyle;rounded=0;orthogonalLoop=1;jettySize=auto;html=1;endArrow=ERoneToMany;endFill=0;startArrow=ERzeroToMany;startFill=0;" edge="1" parent="1" source="S1Vte30AC0sNa9_ae5hA-10">
          <mxGeometry relative="1" as="geometry">
            <mxPoint x="560" y="863" as="targetPoint" />
          </mxGeometry>
        </mxCell>
        <mxCell id="I4SNP1lVgfRBvUvI3X4L-12" style="edgeStyle=orthogonalEdgeStyle;rounded=0;orthogonalLoop=1;jettySize=auto;html=1;entryX=0.006;entryY=0.057;entryDx=0;entryDy=0;entryPerimeter=0;startArrow=ERone;startFill=0;endArrow=ERoneToMany;endFill=0;exitX=0.538;exitY=1.036;exitDx=0;exitDy=0;exitPerimeter=0;" edge="1" parent="1" source="S1Vte30AC0sNa9_ae5hA-29">
          <mxGeometry relative="1" as="geometry">
            <mxPoint x="80" y="520" as="sourcePoint" />
            <mxPoint x="320.00000000000006" y="549.97" as="targetPoint" />
            <Array as="points">
              <mxPoint x="80" y="550" />
            </Array>
          </mxGeometry>
        </mxCell>
        <mxCell id="I4SNP1lVgfRBvUvI3X4L-13" style="edgeStyle=orthogonalEdgeStyle;rounded=0;orthogonalLoop=1;jettySize=auto;html=1;entryX=1.01;entryY=0.067;entryDx=0;entryDy=0;entryPerimeter=0;endArrow=ERmany;endFill=0;startArrow=ERmany;startFill=0;" edge="1" parent="1" source="apBYiKPrkvCSFLuw5tlf-10" target="S1Vte30AC0sNa9_ae5hA-13">
          <mxGeometry relative="1" as="geometry">
            <Array as="points">
              <mxPoint x="550" y="265" />
              <mxPoint x="550" y="544" />
            </Array>
          </mxGeometry>
        </mxCell>
        <mxCell id="I4SNP1lVgfRBvUvI3X4L-14" style="edgeStyle=orthogonalEdgeStyle;rounded=0;orthogonalLoop=1;jettySize=auto;html=1;entryX=0.169;entryY=-0.011;entryDx=0;entryDy=0;entryPerimeter=0;endArrow=ERoneToMany;endFill=0;startArrow=ERmandOne;startFill=0;" edge="1" parent="1" source="S1Vte30AC0sNa9_ae5hA-33" target="S1Vte30AC0sNa9_ae5hA-7">
          <mxGeometry relative="1" as="geometry">
            <Array as="points">
              <mxPoint x="315" y="470" />
              <mxPoint x="240" y="470" />
              <mxPoint x="240" y="630" />
              <mxPoint x="107" y="630" />
            </Array>
          </mxGeometry>
        </mxCell>
        <mxCell id="I4SNP1lVgfRBvUvI3X4L-17" value="Assumptions" style="rounded=0;whiteSpace=wrap;html=1;" vertex="1" parent="1">
          <mxGeometry x="350" y="910" width="120" height="30" as="geometry" />
        </mxCell>
      </root>
    </mxGraphModel>
  </diagram>
</mxfile>
